<?xml version="1.0" standalone="no"?>
<!DOCTYPE svg PUBLIC "-//W3C//DTD SVG 20010904//EN"
 "http://www.w3.org/TR/2001/REC-SVG-20010904/DTD/svg10.dtd">
<svg version="1.0" xmlns="http://www.w3.org/2000/svg"
 width="24.000000pt" height="24.000000pt" viewBox="0 0 24.000000 24.000000"
 preserveAspectRatio="xMidYMid meet">

<g transform="translate(0.000000,24.000000) scale(0.100000,-0.100000)"
fill="currentColor" stroke="currentColor">
<path d="M68 214 c-40 -21 -78 -104 -48 -104 6 0 10 9 10 21 0 32 53 79 90 79
43 0 90 -47 90 -90 0 -40 -47 -90 -84 -90 -14 0 -26 -5 -26 -11 0 -19 70 -2
96 22 50 46 39 134 -20 170 -37 23 -71 24 -108 3z"/>
<path d="M110 150 c0 -38 2 -40 30 -40 17 0 30 5 30 10 0 6 -9 10 -20 10 -16
0 -20 7 -20 30 0 17 -4 30 -10 30 -5 0 -10 -18 -10 -40z"/>
<path d="M50 90 c0 -16 5 -30 10 -30 6 0 10 14 10 30 0 17 -4 30 -10 30 -5 0
-10 -13 -10 -30z"/>
<path d="M50 25 c0 -8 5 -15 10 -15 6 0 10 7 10 15 0 8 -4 15 -10 15 -5 0 -10
-7 -10 -15z"/>
</g>
</svg>
