<?xml version="1.0" standalone="no"?>
<!DOCTYPE svg PUBLIC "-//W3C//DTD SVG 20010904//EN"
 "http://www.w3.org/TR/2001/REC-SVG-20010904/DTD/svg10.dtd">
<svg version="1.0" xmlns="http://www.w3.org/2000/svg"
 width="64.000000pt" height="64.000000pt" viewBox="0 0 64.000000 64.000000"
 preserveAspectRatio="xMidYMid meet">

<g transform="translate(0.000000,64.000000) scale(0.100000,-0.100000)"
fill="#000000" stroke="none">
<path d="M208 599 c-11 -6 -18 -22 -18 -39 0 -28 -2 -29 -52 -32 l-53 -3 -3
-197 -2 -197 -38 -3 c-47 -4 -52 -25 -17 -67 l27 -31 268 0 268 0 26 31 26 31
0 219 0 219 -39 0 c-22 0 -43 -4 -46 -10 -4 -6 8 -10 29 -10 l36 0 0 -210 c0
-197 -1 -211 -20 -230 -38 -38 -100 -22 -118 30 l-11 30 -115 0 c-71 0 -116
-4 -116 -10 0 -6 43 -10 108 -10 l107 0 17 -30 17 -30 -214 0 c-202 0 -216 1
-235 20 -35 35 -24 40 76 40 61 0 93 4 89 10 -3 5 -28 10 -56 10 l-49 0 0 191
0 191 63 -6 c34 -3 76 -7 94 -8 17 -2 43 -14 57 -27 33 -31 47 -19 16 14 l-23
25 106 0 c65 0 107 4 107 10 0 6 -43 10 -110 10 -110 0 -110 0 -110 24 0 47
-49 70 -92 45z m71 -27 c12 -22 -11 -62 -34 -62 -8 0 -21 10 -29 22 -20 28 -4
58 29 58 13 0 29 -8 34 -18z"/>
<path d="M376 373 c-3 -4 -6 -28 -6 -55 0 -44 2 -48 23 -48 26 0 57 28 57 52
0 25 -59 66 -74 51z m44 -38 c15 -18 6 -45 -15 -45 -10 0 -15 10 -15 30 0 33
11 38 30 15z"/>
<path d="M175 360 c-3 -5 1 -10 9 -10 12 0 16 -10 16 -40 0 -22 5 -40 10 -40
6 0 10 18 10 40 0 30 4 40 16 40 8 0 12 5 9 10 -3 6 -19 10 -35 10 -16 0 -32
-4 -35 -10z"/>
<path d="M266 354 c-19 -18 -20 -38 -6 -65 21 -37 70 -13 70 35 0 16 -26 46
-40 46 -5 0 -16 -7 -24 -16z m39 -34 c0 -27 -22 -39 -31 -16 -8 22 3 49 19 43
6 -2 12 -14 12 -27z"/>
<path d="M485 350 c-35 -39 11 -102 50 -70 20 16 19 55 -1 74 -20 21 -27 20
-49 -4z m40 -30 c0 -27 -22 -39 -31 -16 -8 22 3 49 19 43 6 -2 12 -14 12 -27z"/>
<path d="M265 230 c-4 -6 33 -10 105 -10 72 0 109 4 105 10 -3 6 -50 10 -105
10 -55 0 -102 -4 -105 -10z"/>
<path d="M285 180 c-4 -6 22 -10 70 -10 48 0 74 4 70 10 -3 6 -35 10 -70 10
-35 0 -67 -4 -70 -10z"/>
</g>
</svg>
